<svg width="97" height="44" viewBox="0 0 97 44" fill="none" xmlns="http://www.w3.org/2000/svg">
<path d="M17.2929 18.5652L24.5592 8.61878V23.7726H21.5753V17.6376L17.2929 23.5339L13.0013 17.6376V23.7726H10.0174V8.61878L17.2929 18.5652Z" fill="#4080DF"/>
<path d="M29.385 8.96778V14.8916H34.3489V8.96778H37.3236V23.7726H34.3489V17.8397H29.385V23.7726H26.4103V8.96778H29.385Z" fill="#4080DF"/>
<path d="M48.1264 8.93104V11.8975H42.1586V14.8824H46.6345V17.8489H42.1586V20.8337H48.1264V23.791H39.1747V8.93104H48.1264Z" fill="#4080DF"/>
<path d="M52.3904 8.96778V14.8916H57.3543V8.96778H60.329V23.7726H57.3543V17.8397H52.3904V23.7726H49.4157V8.96778H52.3904Z" fill="#4080DF"/>
<path d="M74.1157 8.65551V23.791H71.1318V15.5712L62.1801 24.0757V8.93104H65.1732V17.1509L74.1157 8.65551Z" fill="#4080DF"/>
<path d="M86.8525 23.7726H83.8686V17.2243L79.6046 23.7726H75.9576L79.4112 18.4091C78.6744 18.1213 78.0819 17.6652 77.6337 17.0407C77.0075 16.159 76.6944 15.2191 76.6944 14.2211V13.8354C76.6944 13.07 76.8202 12.418 77.0719 11.8792C77.2807 11.4383 77.6337 10.9699 78.131 10.474C79.1502 9.46984 80.4457 8.96778 82.0175 8.96778H86.8617L86.8525 23.7726ZM82.7266 16.012V16.0028H83.8778V11.9159H82.2017C81.3789 11.9159 80.765 12.1118 80.3597 12.5037C79.9668 12.9139 79.7703 13.3884 79.7703 13.9272C79.7703 14.4966 79.9607 14.9865 80.3413 15.3967C80.7281 15.8069 81.1917 16.012 81.732 16.012H82.7266Z" fill="#4080DF"/>
<path fill-rule="evenodd" clip-rule="evenodd" d="M88.6272 3.31788e-06C89.7263 -0.000974483 90.8148 0.21418 91.8305 0.633148C92.8465 1.05223 93.7697 1.667 94.5473 2.44227C95.325 3.21753 95.9418 4.13807 96.3626 5.15124C96.7834 6.16442 97 7.25038 97 8.34706V24.7053C97 26.9204 96.1183 29.0451 94.5483 30.6118C92.9784 32.1785 90.849 33.0589 88.6283 33.059L59.9514 33.0653V42.3206C59.9514 42.9616 59.5855 43.5467 59.0083 43.8287C58.4311 44.1107 57.7432 44.0405 57.2353 43.6476L43.5456 33.0594L8.37202 33.0657C6.15123 33.0657 4.02165 32.1853 2.45168 30.6185C0.881759 29.0518 0 26.9271 0 24.712V8.35373C0 6.13857 0.881758 4.0139 2.45168 2.44718C4.02165 0.880418 6.15124 3.31788e-06 8.37202 3.31788e-06H88.6272ZM90.5432 3.73689C89.9364 3.4866 89.2862 3.35812 88.6297 3.35878L8.37202 3.35878C7.04528 3.35878 5.77263 3.88474 4.83411 4.82134C3.89555 5.75799 3.36806 7.0286 3.36806 8.35373V24.712C3.36806 26.0371 3.89555 27.3077 4.83411 28.2444C5.77263 29.181 7.04528 29.7069 8.37202 29.7069L44.1203 29.7002C44.4944 29.7 44.858 29.8239 45.1536 30.0526L56.5833 38.8928V31.3863C56.5833 30.459 57.3371 29.7071 58.267 29.7069L88.6276 29.7002C89.9544 29.7002 91.2274 29.1743 92.1659 28.2377C93.1045 27.301 93.632 26.0304 93.632 24.7053V8.34706C93.632 7.69139 93.5025 7.04219 93.2509 6.43658C92.9994 5.83096 92.6307 5.28084 92.1661 4.81762C91.7015 4.35441 91.15 3.98719 90.5432 3.73689Z" fill="#4080DF"/>
</svg>
